<svg width="27" height="25" viewBox="0 0 27 25" fill="none" xmlns="http://www.w3.org/2000/svg">
<path fill-rule="evenodd" clip-rule="evenodd" d="M15.7001 3.2421C14.4097 2.19216 12.3724 2.19216 11.082 3.2421L4.2247 8.82178C4.05669 8.95849 3.94367 9.13657 3.90168 9.33078C3.08034 13.1289 3.01971 17.0172 3.72234 20.8324L3.88912 21.7379H8.30084V13.9311C8.30084 13.4105 8.79854 12.9884 9.41249 12.9884H17.3696C17.9835 12.9884 18.4812 13.4105 18.4812 13.9311V21.7379H22.893L23.0597 20.8324C23.7624 17.0172 23.7017 13.1289 22.8804 9.33078C22.8384 9.13657 22.7254 8.95849 22.5574 8.82178L15.7001 3.2421ZM9.54269 1.88176C11.6933 0.131861 15.0888 0.131861 17.2394 1.88176L24.0967 7.46144C24.6015 7.87218 24.9411 8.40722 25.0673 8.99074C25.9336 12.9972 25.9976 17.0988 25.2564 21.1233L24.9885 22.5781C24.8777 23.1797 24.2666 23.6232 23.5485 23.6232H17.3696C16.7556 23.6232 16.2579 23.2012 16.2579 22.6806V14.8737H10.5241V22.6806C10.5241 23.2012 10.0264 23.6232 9.41249 23.6232H3.23359C2.51548 23.6232 1.90439 23.1797 1.79359 22.5781L1.52566 21.1233C0.784486 17.0988 0.848439 12.9972 1.71483 8.99074C1.84102 8.40722 2.18057 7.87218 2.68536 7.46144L9.54269 1.88176Z" fill="black" stroke="black"/>
</svg>
