<svg width="18" height="25" viewBox="0 0 18 25" fill="none" xmlns="http://www.w3.org/2000/svg">
<path fill-rule="evenodd" clip-rule="evenodd" d="M6.54479 2.29822C8.00412 1.089 9.9834 0.409668 12.0472 0.409668H16.0492C16.6631 0.409668 17.1608 0.822073 17.1608 1.3308V5.75224C17.1608 6.26097 16.6631 6.67337 16.0492 6.67337H12.0472C11.9882 6.67337 11.9317 6.69278 11.89 6.72733C11.8483 6.76188 11.8249 6.80874 11.8249 6.8576V9.25254H16.0492C16.3915 9.25254 16.7147 9.38322 16.9254 9.6068C17.136 9.83037 17.2106 10.1219 17.1276 10.3971L15.7936 14.8185C15.6699 15.2286 15.2253 15.5162 14.7152 15.5162H11.8249V23.438C11.8249 23.9467 11.3272 24.3591 10.7132 24.3591H5.37728C4.76333 24.3591 4.26562 23.9467 4.26562 23.438V15.5162H1.37533C0.761376 15.5162 0.263672 15.1038 0.263672 14.5951V10.1737C0.263672 9.66495 0.761376 9.25254 1.37533 9.25254H4.26562V6.8576C4.26562 5.1475 5.08547 3.50744 6.54479 2.29822ZM12.0472 2.25193C10.5731 2.25193 9.15929 2.73717 8.11691 3.6009C7.07453 4.46463 6.48893 5.6361 6.48893 6.8576V10.1737C6.48893 10.6824 5.99123 11.0948 5.37728 11.0948H2.48698V13.674H5.37728C5.99123 13.674 6.48893 14.0864 6.48893 14.5951V22.5169H9.60156V14.5951C9.60156 14.0864 10.0993 13.674 10.7132 13.674H13.8472L14.6254 11.0948H10.7132C10.0993 11.0948 9.60156 10.6824 9.60156 10.1737V6.8576C9.60156 6.32014 9.85923 5.80469 10.3179 5.42465C10.7765 5.04461 11.3986 4.8311 12.0472 4.8311H14.9375V2.25193H12.0472Z" fill="black"/>
</svg>
