<svg width="28.287" height="33.001" viewBox="0 0 28.287 33.001" fill="none" xmlns="http://www.w3.org/2000/svg" style="transform: translateX(2px);">
  <path d="M13.299 7.505a2.607 2.607 0 0 0 -2.617 2.617 2.607 2.607 0 0 0 2.617 2.621 2.607 2.607 0 0 0 2.617 -2.621 2.607 2.607 0 0 0 -2.617 -2.617m13.092 -5.234v6.544h-2.617V6.195H2.828v2.621H0.208V2.263h2.621V4.884h20.945V2.263zm-9.164 13.427v15.369h-2.613v-6.544h-2.621v6.544H9.377V15.698a8.536 8.536 0 0 1 -4.583 -7.538v-0.655h2.621v0.655a5.868 5.868 0 0 0 5.894 5.894 5.874 5.874 0 0 0 5.89 -5.894v-0.655h2.617v0.655c0 3.271 -1.872 6.114 -4.583 7.544" fill="black"/>
</svg>
