<svg width="144" height="128" viewBox="0 0 144 128" fill="none" xmlns="http://www.w3.org/2000/svg" xmlns:xlink="http://www.w3.org/1999/xlink">
<g opacity="0.2">
<path d="M142.586,63.886C142.586,98.933 110.733,127.344 71.441,127.344C32.148,127.344 0.295,98.933 0.295,63.886C0.295,28.839 32.148,0.428 71.441,0.428C110.733,0.428 142.586,28.839 142.586,63.886Z" fill="#60E1CB"/>
</g>
<path d="M107.726,64.736C107.726,81.396 91.799,94.901 72.153,94.901C52.507,94.901 36.58,81.396 36.58,64.736C36.58,48.077 52.507,34.571 72.153,34.571C91.799,34.571 107.726,48.077 107.726,64.736Z" stroke="#000000" stroke-width="3" stroke-miterlimit="3.999327"/>
<path d="M41.878,54.253C53.902,59.018 63.519,61.254 73.258,61.128C82.964,61.003 92.546,58.533 104.464,54.29L102.451,48.638C90.745,52.805 81.901,55.016 73.181,55.129C64.495,55.241 55.687,53.271 44.089,48.675L41.878,54.253Z" fill="#000000"/>
<path d="M41.167,74.765C53.19,79.53 62.808,81.766 72.547,81.64C82.253,81.515 91.834,79.045 103.752,74.802L101.739,69.15C90.034,73.317 81.189,75.528 72.469,75.641C63.783,75.753 54.975,73.783 43.377,69.187L41.167,74.765Z" transform="rotate(-360 72.509 75.31)" fill="#000000"/>
</svg>
