<svg width="58" height="48" viewBox="0 0 58 48" fill="none" xmlns="http://www.w3.org/2000/svg" xmlns:xlink="http://www.w3.org/1999/xlink">
<path d="M40.438,10.6C40.438,9.243 41.765,8.144 43.402,8.144C45.039,8.144 46.366,9.243 46.366,10.6C46.366,11.957 45.039,13.056 43.402,13.056C41.765,13.056 40.438,11.957 40.438,10.6Z" fill="#000000"/>
<path d="M28.58,11.214C20.803,11.214 14.499,16.438 14.499,22.882C14.499,29.326 20.803,34.55 28.58,34.55C36.357,34.55 42.661,29.326 42.661,22.882C42.661,16.438 36.357,11.214 28.58,11.214ZM18.946,22.882C18.946,18.473 23.259,14.899 28.58,14.899C33.901,14.899 38.214,18.473 38.214,22.882C38.214,27.291 33.901,30.865 28.58,30.865C23.259,30.865 18.946,27.291 18.946,22.882Z" clip-rule="evenodd" fill-rule="evenodd" fill="#000000"/>
<path d="M44.168,0.364C33.891,-0.587 23.269,-0.587 12.992,0.364C7.028,0.917 2.213,4.81 1.511,9.778C0.283,18.484 0.283,27.279 1.511,35.986C2.213,40.954 7.028,44.847 12.992,45.399C23.269,46.351 33.891,46.351 44.168,45.399C50.132,44.847 54.947,40.954 55.649,35.986C56.877,27.279 56.877,18.484 55.649,9.778C54.947,4.81 50.132,0.917 44.168,0.364ZM13.486,4.026C23.434,3.105 33.726,3.105 43.674,4.026C47.617,4.391 50.775,6.97 51.232,10.206C52.421,18.628 52.421,27.136 51.232,35.557C50.775,38.794 47.617,41.372 43.674,41.738C33.726,42.659 23.434,42.659 13.486,41.738C9.543,41.372 6.385,38.794 5.928,35.557C4.739,27.136 4.739,18.628 5.928,10.206C6.385,6.97 9.543,4.391 13.486,4.026Z" clip-rule="evenodd" fill-rule="evenodd" fill="#000000"/>
</svg>
