<svg width="29" height="25" viewBox="0 0 29 25" fill="none" xmlns="http://www.w3.org/2000/svg">
<path d="M20.2188 6.29988C20.2188 5.62157 20.8824 5.0717 21.701 5.0717C22.5196 5.0717 23.1832 5.62157 23.1832 6.29988C23.1832 6.97818 22.5196 7.52805 21.701 7.52805C20.8824 7.52805 20.2188 6.97818 20.2188 6.29988Z" fill="black"/>
<path fill-rule="evenodd" clip-rule="evenodd" d="M14.29 6.60692C10.4017 6.60692 7.24954 9.21882 7.24954 12.4408C7.24954 15.6627 10.4017 18.2746 14.29 18.2746C18.1784 18.2746 21.3305 15.6627 21.3305 12.4408C21.3305 9.21882 18.1784 6.60692 14.29 6.60692ZM9.47285 12.4408C9.47285 10.2363 11.6296 8.44919 14.29 8.44919C16.9505 8.44919 19.1072 10.2363 19.1072 12.4408C19.1072 14.6452 16.9505 16.4323 14.29 16.4323C11.6296 16.4323 9.47285 14.6452 9.47285 12.4408Z" fill="black"/>
<path fill-rule="evenodd" clip-rule="evenodd" d="M22.0838 1.18208C16.9457 0.706234 11.6344 0.706234 6.49624 1.18208C3.51396 1.45827 1.10636 3.40494 0.755745 5.88897C0.141314 10.242 0.141314 14.6395 0.755745 18.9926C1.10636 21.4766 3.51396 23.4233 6.49624 23.6994C11.6344 24.1753 16.9457 24.1753 22.0838 23.6994C25.0661 23.4233 27.4737 21.4766 27.8243 18.9926C28.4388 14.6395 28.4388 10.242 27.8243 5.88897C27.4737 3.40494 25.0661 1.45827 22.0838 1.18208ZM6.74319 3.01295C11.7172 2.5523 16.8628 2.5523 21.8369 3.01295C23.8084 3.19553 25.3876 4.48464 25.6161 6.10298C26.2104 10.3138 26.2104 14.5677 25.6161 18.7785C25.3876 20.3969 23.8084 21.686 21.8369 21.8686C16.8628 22.3292 11.7172 22.3292 6.74319 21.8686C4.7717 21.686 3.19243 20.3969 2.964 18.7785C2.36964 14.5677 2.36964 10.3138 2.964 6.10298C3.19243 4.48464 4.7717 3.19553 6.74319 3.01295Z" fill="black"/>
</svg>
