<svg width="33" height="24" viewBox="0 0 33 24" fill="none" xmlns="http://www.w3.org/2000/svg">
<path fill-rule="evenodd" clip-rule="evenodd" d="M21.1779 0.519126C21.9314 0.406629 22.7752 0.369067 23.5693 0.486163C24.9876 0.695292 26.2976 1.26982 27.3332 2.13117C28.0101 2.14451 28.6753 2.02828 29.264 1.86259C29.7622 1.72236 30.183 1.55303 30.4779 1.41915C30.6245 1.35258 30.7378 1.29579 30.8114 1.25734C30.8482 1.23815 30.8749 1.22362 30.8908 1.21485L30.9049 1.20702C31.3448 0.951585 31.9306 1.0013 32.3054 1.32621C32.6803 1.65119 32.7407 2.16137 32.4498 2.54622C32.1419 2.95353 31.7145 3.67965 31.2357 4.4932C31.1604 4.62112 31.0838 4.7512 31.0063 4.88254C30.7316 5.34756 30.45 5.81756 30.1875 6.22079C30.0227 6.47397 29.8465 6.73102 29.6687 6.95314V7.30682C29.68 8.60595 29.5091 9.89829 29.1621 11.1556C28.9438 11.9466 28.6558 12.7238 28.2998 13.48C27.3772 15.4393 26.016 17.2188 24.2955 18.7144C22.5751 20.2101 20.53 21.3919 18.2796 22.191C16.0312 22.9893 13.623 23.3895 11.1954 23.3683C7.67617 23.371 4.23098 22.4873 1.2744 20.8234C0.838926 20.5784 0.655579 20.1035 0.83246 19.6789C1.00934 19.2542 1.4995 18.9924 2.01393 19.0479C2.45912 19.0959 2.90736 19.1194 3.35595 19.1181C4.96777 19.1142 6.5489 18.8038 7.99236 18.219C7.53355 18.037 7.0955 17.8125 6.68619 17.548C5.48306 16.7704 4.58794 15.6853 4.12539 14.4437C4.00519 14.121 4.08736 13.7671 4.34203 13.5105C4.34659 13.5059 4.35119 13.5014 4.35584 13.4969C4.08381 13.2855 3.82928 13.0553 3.59495 12.8077C2.54063 11.6939 1.96008 10.2968 1.95152 8.85288L1.95149 8.84787L1.9515 8.78327C1.9515 8.43981 2.16012 8.12202 2.49985 7.94799C2.58597 7.90387 2.67725 7.87066 2.77115 7.84839C2.26967 6.97628 2.00888 6.01327 2.01079 5.0363C2.0102 3.92948 2.34191 2.84178 2.97298 1.88129C3.15515 1.60401 3.48247 1.42284 3.84787 1.39704C4.21328 1.37123 4.56979 1.5041 4.80081 1.7522C6.22751 3.28435 8.00807 4.53778 10.0268 5.43106C11.0646 5.89025 12.1533 6.24899 13.2736 6.50276C13.9016 6.64503 14.5396 6.7543 15.184 6.82978C15.1556 5.89544 15.3673 4.9616 15.8116 4.09873C16.4633 2.83294 17.5786 1.79148 18.9826 1.13768C19.5771 0.860799 20.3664 0.640265 21.1779 0.519126ZM4.46128 10.2694C4.65344 10.7408 4.93931 11.183 5.30995 11.5746C6.03819 12.3439 7.04897 12.8704 8.17132 13.065C8.67125 13.1517 9.03949 13.5236 9.06472 13.9673C9.08996 14.411 8.76572 14.8129 8.27808 14.9422C7.87419 15.0493 7.46039 15.124 7.04188 15.1654C7.31843 15.4761 7.64375 15.7544 8.01045 15.9914C8.84225 16.529 9.84562 16.8272 10.8809 16.8446C11.3507 16.8525 11.764 17.1169 11.9135 17.5051C12.0629 17.8934 11.9162 18.3215 11.547 18.5748C9.99189 19.6412 8.19368 20.3849 6.28823 20.7645C7.8675 21.2054 9.52378 21.4323 11.1991 21.4305L11.212 21.4305C13.3465 21.4498 15.4639 21.0983 17.4408 20.3964C19.4176 19.6945 21.2141 18.6563 22.7254 17.3424C24.2367 16.0286 25.4325 14.4654 26.2429 12.7443C26.5557 12.08 26.8087 11.3973 27.0005 10.7024C27.3055 9.59688 27.4557 8.46048 27.4455 7.31814L27.4454 7.31056V6.62588C27.4454 6.39095 27.5434 6.16402 27.721 5.98733C27.8237 5.88522 28.0033 5.64939 28.2538 5.26454C28.4919 4.89879 28.7554 4.45968 29.0295 3.99567C29.0461 3.9676 29.0627 3.93939 29.0794 3.91106C28.3686 4.0456 27.5629 4.11612 26.7183 4.03656C26.4508 4.01137 26.2029 3.90248 26.0205 3.7301C25.2751 3.0256 24.2826 2.55665 23.1985 2.39679C22.7174 2.32586 22.1359 2.3421 21.5532 2.42909C20.9202 2.5236 20.3692 2.68898 20.0303 2.84681C19.0605 3.2984 18.2901 4.01776 17.84 4.89207C17.3899 5.76638 17.2854 6.74618 17.543 7.67781C17.6251 7.97482 17.5417 8.2882 17.3179 8.52335C17.0941 8.75851 16.7562 8.8879 16.4061 8.87246C15.156 8.81735 13.9191 8.65116 12.7143 8.37823C11.4397 8.08951 10.201 7.68136 9.02034 7.15891C7.28204 6.38973 5.69896 5.38584 4.32816 4.1874C4.26563 4.46594 4.23388 4.75018 4.2341 5.03626L4.23409 5.03874C4.23255 5.75018 4.43286 6.45092 4.81721 7.07857C5.20156 7.70622 5.75802 8.24129 6.43703 8.63615C6.84912 8.87579 7.02955 9.32417 6.87947 9.73564C6.72939 10.1471 6.28503 10.4224 5.78982 10.4106C5.34131 10.4 4.89656 10.3525 4.46128 10.2694Z" fill="black"/>
</svg>
