<svg width="144" height="128" viewBox="0 0 144 128" fill="none" xmlns="http://www.w3.org/2000/svg" xmlns:xlink="http://www.w3.org/1999/xlink">
<g opacity="0.2">
<path d="M142.588,63.887C142.588,98.933 110.735,127.344 71.443,127.344C32.15,127.344 0.297,98.933 0.297,63.887C0.297,28.84 32.15,0.429 71.443,0.429C110.735,0.429 142.588,28.84 142.588,63.887Z" fill="#60E1CB"/>
</g>
<path d="M107.728,64.736C107.728,81.396 91.801,94.901 72.155,94.901C52.509,94.901 36.582,81.396 36.582,64.736C36.582,48.077 52.509,34.571 72.155,34.571C91.801,34.571 107.728,48.077 107.728,64.736Z" stroke="#000000" stroke-width="3" stroke-miterlimit="3.999327"/>
<path d="M41.879,54.253C53.903,59.018 63.52,61.254 73.259,61.128C82.965,61.003 92.547,58.534 104.465,54.29L102.452,48.638C90.746,52.806 81.902,55.016 73.182,55.129C64.496,55.241 55.688,53.271 44.09,48.675L41.879,54.253Z" fill="#000000"/>
<path d="M41.167,74.765C53.191,79.53 62.808,81.766 72.547,81.64C82.253,81.515 91.834,79.046 103.752,74.802L101.74,69.15C90.034,73.318 81.189,75.529 72.47,75.641C63.783,75.753 54.975,73.783 43.377,69.187L41.167,74.765Z" transform="rotate(-360 72.509 75.311)" fill="#000000"/>
</svg>
