<svg width="142" height="128" viewBox="0 0 142 128" fill="none" xmlns="http://www.w3.org/2000/svg" xmlns:xlink="http://www.w3.org/1999/xlink">
<g opacity="0.2">
<path d="M141.924,63.777C141.924,98.824 110.071,127.235 70.779,127.235C31.486,127.235 -0.367,98.824 -0.367,63.777C-0.367,28.73 31.486,0.319 70.779,0.319C110.071,0.319 141.924,28.73 141.924,63.777Z" fill="#60E1CB"/>
</g>
<path d="M75.4,48.484C72.819,46.384 68.745,46.384 66.164,48.484L52.449,59.644C52.113,59.917 51.887,60.273 51.803,60.662C50.161,68.258 50.039,76.034 51.445,83.665L51.778,85.476L60.602,85.476L60.602,69.862C60.602,68.821 61.597,67.977 62.825,67.977L78.739,67.977C79.967,67.977 80.963,68.821 80.963,69.862L80.963,85.476L89.786,85.476L90.12,83.665C91.525,76.034 91.404,68.258 89.761,60.662C89.677,60.273 89.451,59.917 89.115,59.644L75.4,48.484ZM63.085,45.764C67.387,42.264 74.178,42.264 78.479,45.764L92.194,56.923C93.203,57.744 93.882,58.814 94.135,59.981C95.867,67.994 95.995,76.198 94.513,84.246L93.977,87.156C93.755,88.359 92.533,89.246 91.097,89.246L78.739,89.246C77.511,89.246 76.516,88.402 76.516,87.361L76.516,71.747L65.048,71.747L65.048,87.361C65.048,88.402 64.053,89.246 62.825,89.246L50.467,89.246C49.031,89.246 47.809,88.359 47.587,87.156L47.051,84.246C45.569,76.198 45.697,67.994 47.43,59.981C47.682,58.814 48.361,57.744 49.371,56.923L63.085,45.764Z" clip-rule="evenodd" fill-rule="evenodd" fill="#000000" stroke="#000000" stroke-width="1" stroke-miterlimit="3.999327"/>
</svg>
