<svg width="142" height="128" viewBox="0 0 142 128" fill="none" xmlns="http://www.w3.org/2000/svg" xmlns:xlink="http://www.w3.org/1999/xlink">
<g opacity="0.2">
<path d="M141.927,63.776C141.927,98.823 110.074,127.234 70.781,127.234C31.488,127.234 -0.365,98.823 -0.365,63.776C-0.365,28.73 31.488,0.319 70.781,0.319C110.074,0.319 141.927,28.73 141.927,63.776Z" fill="#60E1CB"/>
</g>
<path d="M75.4,48.484C72.819,46.384 68.745,46.384 66.164,48.484L52.45,59.643C52.113,59.917 51.887,60.273 51.803,60.661C50.161,68.257 50.04,76.034 51.445,83.664L51.778,85.475L60.602,85.475L60.602,69.862C60.602,68.82 61.597,67.976 62.825,67.976L78.739,67.976C79.967,67.976 80.963,68.82 80.963,69.862L80.963,85.475L89.786,85.475L90.12,83.664C91.525,76.034 91.404,68.257 89.761,60.661C89.677,60.273 89.451,59.917 89.115,59.643L75.4,48.484ZM63.085,45.763C67.387,42.263 74.178,42.263 78.479,45.763L92.194,56.922C93.203,57.744 93.882,58.814 94.135,59.981C95.867,67.994 95.995,76.197 94.513,84.246L93.977,87.156C93.755,88.359 92.533,89.246 91.097,89.246L78.739,89.246C77.511,89.246 76.516,88.402 76.516,87.361L76.516,71.747L65.048,71.747L65.048,87.361C65.048,88.402 64.053,89.246 62.825,89.246L50.467,89.246C49.031,89.246 47.809,88.359 47.587,87.156L47.051,84.246C45.569,76.197 45.697,67.994 47.43,59.981C47.682,58.814 48.361,57.744 49.371,56.922L63.085,45.763Z" clip-rule="evenodd" fill-rule="evenodd" fill="#000000" stroke="#000000" stroke-width="1" stroke-miterlimit="3.999327"/>
</svg>
