<svg width="200" height="210" viewBox="0 0 200 210" fill="none" xmlns="http://www.w3.org/2000/svg" xmlns:xlink="http://www.w3.org/1999/xlink">
<g opacity="0.2">
<path d="M199,104.59C199,162.682 154.228,209.775 99,209.775C43.772,209.775 -1,162.682 -1,104.59C-1,46.498 43.772,-0.595 99,-0.595C154.228,-0.595 199,46.498 199,104.59Z" fill="#60E1CB"/>
</g>
<circle cx="100" cy="106" r="50" stroke="#000000" stroke-width="3" stroke-miterlimit="3.999327"/>
<path d="M57.73,86.718C74.557,94.582 87.974,98.253 101.545,98.047C115.074,97.841 128.449,93.783 145.161,86.766L142.839,81.234C126.346,88.159 113.823,91.859 101.454,92.047C89.126,92.235 76.645,88.935 60.27,81.282L57.73,86.718Z" fill="#000000"/>
<path d="M56.73,120.718C73.557,128.582 86.974,132.253 100.545,132.046C114.074,131.841 127.449,127.783 144.161,120.766L141.839,115.234C125.346,122.159 112.823,125.859 100.454,126.047C88.126,126.234 75.645,122.934 59.27,115.282L56.73,120.718Z" transform="rotate(-360 100.5 123.527)" fill="#000000"/>
</svg>
