<svg width="200" height="210" viewBox="0 0 200 210" fill="none" xmlns="http://www.w3.org/2000/svg" xmlns:xlink="http://www.w3.org/1999/xlink">
<g opacity="0.2">
<path d="M200,104.408C200,162.5 155.228,209.594 100,209.594C44.772,209.594 0,162.5 0,104.408C0,46.316 44.772,-0.776 100,-0.776C155.228,-0.776 200,46.316 200,104.408Z" fill="#60E1CB"/>
</g>
<path d="M106.492,79.06C102.865,75.579 97.138,75.579 93.51,79.06L74.234,97.557C73.761,98.01 73.444,98.6 73.326,99.244C71.017,111.835 70.846,124.725 72.821,137.373L73.29,140.375L85.692,140.375L85.692,114.495C85.692,112.769 87.091,111.37 88.817,111.37L111.186,111.37C112.911,111.37 114.311,112.769 114.311,114.495L114.311,140.375L126.712,140.375L127.181,137.373C129.156,124.726 128.986,111.835 126.677,99.244C126.559,98.6 126.241,98.01 125.769,97.557L106.492,79.06ZM89.183,74.55C95.229,68.749 104.774,68.749 110.82,74.55L130.096,93.047C131.515,94.409 132.47,96.183 132.825,98.117C135.26,111.399 135.44,124.996 133.356,138.338L132.603,143.16C132.292,145.155 130.574,146.625 128.555,146.625L111.186,146.625C109.46,146.625 108.061,145.226 108.061,143.5L108.061,117.62L91.942,117.62L91.942,143.5C91.942,145.226 90.543,146.625 88.817,146.625L71.447,146.625C69.429,146.625 67.711,145.155 67.399,143.16L66.646,138.338C64.563,124.996 64.743,111.399 67.178,98.117C67.533,96.183 68.487,94.409 69.906,93.047L89.183,74.55Z" clip-rule="evenodd" fill-rule="evenodd" fill="#000000"/>
</svg>
