<svg width="42" height="38" viewBox="0 0 42 38" fill="none" xmlns="http://www.w3.org/2000/svg" xmlns:xlink="http://www.w3.org/1999/xlink">
<path d="M20.508,12.349L26.234,18.361L26.261,18.046C26.261,14.887 23.816,12.32 20.808,12.32L20.508,12.349Z" fill="#000000"/>
<path d="M20.808,8.503C25.825,8.503 29.897,12.778 29.897,18.046C29.897,19.277 29.661,20.451 29.252,21.53L34.569,27.112C37.313,24.708 39.477,21.596 40.813,18.046C37.659,9.667 29.906,3.731 20.808,3.731C18.263,3.731 15.828,4.209 13.564,5.067L17.491,9.181C18.518,8.761 19.636,8.503 20.808,8.503Z" fill="#000000"/>
<path d="M2.63,3.302L6.775,7.653L7.602,8.522C4.603,10.984 2.23,14.257 0.813,18.046C3.957,26.425 11.719,32.361 20.808,32.361C23.625,32.361 26.316,31.788 28.779,30.748L29.552,31.559L34.85,37.133L37.168,34.709L4.948,0.868L2.63,3.302ZM12.683,13.847L15.491,16.796C15.409,17.206 15.355,17.617 15.355,18.046C15.355,21.205 17.8,23.772 20.808,23.772C21.217,23.772 21.608,23.715 21.989,23.629L24.798,26.578C23.589,27.208 22.244,27.589 20.808,27.589C15.791,27.589 11.719,23.314 11.719,18.046C11.719,16.538 12.083,15.126 12.683,13.847Z" fill="#000000"/>
</svg>
