<svg width="4592" height="2608" viewBox="0 0 4592 2608" fill="none" xmlns="http://www.w3.org/2000/svg" xmlns:xlink="http://www.w3.org/1999/xlink">
<g opacity="0.15">
<circle cx="816.001" cy="2207" r="401" fill="#FFFFFF"/>
</g>
<path d="M1492.498,586.656L1492.806,587.608L1492.812,587.606L1492.498,586.656ZM2378.498,292.656L2378.198,291.706L2378.178,291.708L2378.498,292.656ZM2175.498,677.656L2176.498,677.704L2176.498,677.69L2175.498,677.656ZM2.318,678.228C24.523,646.414 69.804,608.19 133.421,597.042C196.998,585.902 279.048,601.778 374.874,678.438L376.122,676.876C279.948,599.936 197.332,583.812 133.076,595.072C68.859,606.324 23.14,644.9 0.678,677.084L2.318,678.228ZM374.874,678.438C423.118,717.032 498.914,736.458 589.854,742.502C680.828,748.546 787.12,741.206 896.51,726.122C1115.29,695.954 1346.6,634.788 1492.806,587.608L1492.19,585.704C1346.064,632.86 1114.872,693.992 896.236,724.142C786.918,739.216 680.772,746.538 589.986,740.506C499.164,734.472 423.878,715.08 376.122,676.876L374.874,678.438ZM1492.812,587.606L2378.818,293.606L2378.178,291.708L1492.184,585.708L1492.812,587.606ZM2378.798,293.608C2409.518,283.676 2444.518,269.33 2476.338,251.462C2508.138,233.604 2536.838,212.188 2554.898,188.081C2572.978,163.944 2580.418,137.03 2569.478,108.354C2558.578,79.761 2529.458,49.629 2474.998,18.787L2473.998,20.527C2528.338,51.284 2556.958,81.12 2567.618,109.066C2578.238,136.929 2571.078,163.128 2553.298,186.882C2535.478,210.668 2507.058,231.922 2475.358,249.72C2443.678,267.508 2408.798,281.804 2378.198,291.706L2378.798,293.608ZM2474.998,18.787C2447.658,3.307 2422.498,-2.264 2399.418,0.464C2376.358,3.192 2355.438,14.206 2336.558,31.698C2298.838,66.648 2269.038,127.581 2245.818,200.654C2199.358,346.846 2178.998,542.252 2174.498,677.624L2176.498,677.69C2180.998,542.396 2201.338,347.2 2247.718,201.26C2270.918,128.266 2300.598,67.749 2337.918,33.165C2356.578,15.891 2377.098,5.118 2399.658,2.45C2422.218,-0.218 2446.938,5.207 2473.998,20.527L2474.998,18.787ZM2174.498,677.61L2141.838,1367.188L2143.818,1367.282L2176.498,677.704L2174.498,677.61Z" transform="rotate(169.734 1287.544 684.016)" fill="#EEEEEE"/>
</svg>
