<svg width="44" height="38" viewBox="0 0 44 38" fill="none" xmlns="http://www.w3.org/2000/svg" xmlns:xlink="http://www.w3.org/1999/xlink">
<path d="M21.107,12.349L27.285,18.361L27.314,18.046C27.314,14.887 24.677,12.32 21.431,12.32L21.107,12.349Z" fill="#000000"/>
<path d="M21.432,8.503C26.844,8.503 31.237,12.778 31.237,18.046C31.237,19.277 30.982,20.451 30.541,21.53L36.277,27.112C39.238,24.708 41.572,21.596 43.013,18.046C39.611,9.667 31.247,3.731 21.432,3.731C18.686,3.731 16.059,4.209 13.617,5.067L17.853,9.181C18.961,8.761 20.167,8.503 21.432,8.503Z" fill="#000000"/>
<path d="M1.82,3.302L6.292,7.653L7.184,8.522C3.948,10.984 1.389,14.257 -0.141,18.046C3.252,26.425 11.626,32.361 21.431,32.361C24.471,32.361 27.373,31.788 30.03,30.748L30.864,31.559L36.58,37.133L39.081,34.709L4.321,0.868L1.82,3.302ZM12.665,13.847L15.695,16.796C15.607,17.206 15.548,17.617 15.548,18.046C15.548,21.205 18.185,23.772 21.431,23.772C21.872,23.772 22.294,23.715 22.706,23.629L25.736,26.578C24.432,27.208 22.98,27.589 21.431,27.589C16.019,27.589 11.626,23.314 11.626,18.046C11.626,16.538 12.018,15.126 12.665,13.847Z" fill="#000000"/>
</svg>
