<svg width="100" height="100" viewBox="0 0 100 100" fill="none" xmlns="http://www.w3.org/2000/svg" xmlns:xlink="http://www.w3.org/1999/xlink">
<circle cx="50" cy="50" r="50" stroke="#000000" stroke-width="3" stroke-miterlimit="3.999327"/>
<path d="M7.73,30.718C24.557,38.582 37.974,42.253 51.545,42.047C65.074,41.841 78.449,37.783 95.161,30.766L92.839,25.234C76.346,32.159 63.823,35.859 51.454,36.047C39.126,36.235 26.645,32.935 10.27,25.282L7.73,30.718Z" fill="#000000"/>
<path d="M6.73,64.718C23.557,72.582 36.974,76.253 50.545,76.046C64.074,75.841 77.449,71.783 94.161,64.766L91.839,59.234C75.346,66.159 62.823,69.859 50.454,70.047C38.126,70.234 25.645,66.934 9.27,59.282L6.73,64.718Z" transform="rotate(-360 50.5 67.527)" fill="#000000"/>
</svg>
