<svg width="44" height="36" viewBox="0 0 44 36" fill="none" xmlns="http://www.w3.org/2000/svg" xmlns:xlink="http://www.w3.org/1999/xlink">
<path d="M21.545,11.203L27.693,16.954L27.722,16.653C27.722,13.631 25.097,11.176 21.867,11.176L21.545,11.203Z" fill="#000000"/>
<path d="M21.867,7.524C27.254,7.524 31.626,11.614 31.626,16.653C31.626,17.83 31.373,18.953 30.933,19.984L36.642,25.324C39.589,23.024 41.912,20.048 43.346,16.653C39.96,8.638 31.636,2.96 21.868,2.96C19.135,2.96 16.52,3.416 14.09,4.238L18.306,8.172C19.408,7.771 20.609,7.524 21.867,7.524Z" fill="#000000"/>
<path d="M2.35,2.549L6.8,6.712L7.688,7.543C4.468,9.898 1.921,13.029 0.398,16.653C3.775,24.667 12.109,30.345 21.868,30.345C24.893,30.345 27.781,29.797 30.426,28.802L31.256,29.578L36.945,34.909L39.434,32.591L4.839,0.222L2.35,2.549ZM13.143,12.636L16.159,15.457C16.071,15.849 16.012,16.242 16.012,16.653C16.012,19.674 18.638,22.13 21.868,22.13C22.307,22.13 22.726,22.075 23.136,21.993L26.152,24.813C24.854,25.416 23.41,25.781 21.868,25.781C16.481,25.781 12.109,21.692 12.109,16.653C12.109,15.21 12.499,13.859 13.143,12.636Z" fill="#000000"/>
</svg>
