<svg width="3112" height="1622" viewBox="0 0 3112 1622" fill="none" xmlns="http://www.w3.org/2000/svg" xmlns:xlink="http://www.w3.org/1999/xlink">
<g opacity="0.15">
<path d="M710.828,1384.778C710.828,1515.338 583.096,1621.178 425.532,1621.178C267.969,1621.178 140.238,1515.338 140.238,1384.778C140.238,1254.218 267.969,1148.378 425.532,1148.378C583.096,1148.378 710.828,1254.218 710.828,1384.778Z" fill="#FFFFFF"/>
</g>
<path d="M882.063,417.759L882.425,418.693L882.433,418.689L882.063,417.759ZM1405.335,208.853L1404.973,207.921L1404.965,207.925L1405.335,208.853ZM1285.443,482.421L1286.443,482.461L1286.443,482.449L1285.443,482.421ZM2.342,482.923C15.435,460.353 42.1,433.301 79.495,425.417C116.827,417.547 165.131,428.725 221.669,483.141L223.055,481.701C166.198,426.975 117.25,415.415 79.083,423.461C40.98,431.493 13.9,459.013 0.612,481.919L2.342,482.923ZM221.669,483.141C250.265,510.665 295.159,524.487 348.919,528.785C402.707,533.085 465.529,527.863 530.155,517.141C659.411,495.699 796.055,452.225 882.425,418.693L881.701,416.827C795.419,450.325 658.911,493.753 529.827,515.169C465.283,525.877 402.641,531.073 349.079,526.791C295.493,522.509 251.157,508.749 223.055,481.701L221.669,483.141ZM882.433,418.689L1405.707,209.783L1404.965,207.925L881.693,416.831L882.433,418.689ZM1405.699,209.785C1423.867,202.717 1444.567,192.508 1463.391,179.792C1482.205,167.082 1499.201,151.828 1509.895,134.649C1520.603,117.444 1525.009,98.272 1518.533,77.845C1512.069,57.46 1494.821,35.994 1462.597,14.043L1461.471,15.696C1493.503,37.516 1510.351,58.66 1516.627,78.45C1522.887,98.199 1518.669,116.766 1508.197,133.592C1497.707,150.442 1480.961,165.509 1462.271,178.135C1443.591,190.755 1423.027,200.898 1404.973,207.921L1405.699,209.785ZM1462.597,14.043C1446.389,3.002 1431.417,-1.014 1417.625,0.947C1403.841,2.907 1391.411,10.815 1380.227,23.279C1357.893,48.172 1340.287,91.522 1326.571,143.44C1299.125,247.337 1287.103,386.199 1284.445,482.393L1286.443,482.449C1289.101,386.317 1301.115,247.631 1328.505,143.95C1342.209,92.078 1359.721,49.13 1381.715,24.615C1392.697,12.375 1404.731,4.801 1417.907,2.927C1431.073,1.055 1445.549,4.851 1461.471,15.696L1462.597,14.043ZM1284.445,482.381L1265.149,972.371L1267.149,972.451L1286.443,482.461L1284.445,482.381Z" transform="rotate(167.625 761.017 486.94)" fill="#EEEEEE"/>
</svg>
