<svg width="4592" height="2608" viewBox="0 0 4592 2608" fill="none" xmlns="http://www.w3.org/2000/svg" xmlns:xlink="http://www.w3.org/1999/xlink">
<g opacity="0.15">
<circle cx="815" cy="2206.207" r="401" fill="#FFFFFF"/>
</g>
<path d="M1491.498,585.863L1491.806,586.815L1491.812,586.813L1491.498,585.863ZM2377.498,291.863L2377.198,290.913L2377.178,290.915L2377.498,291.863ZM2174.498,676.863L2175.498,676.911L2175.498,676.897L2174.498,676.863ZM1.318,677.435C23.523,645.621 68.804,607.397 132.421,596.249C195.998,585.109 278.048,600.985 373.874,677.645L375.122,676.083C278.948,599.143 196.332,583.019 132.076,594.279C67.859,605.531 22.14,644.107 -0.322,676.291L1.318,677.435ZM373.874,677.645C422.118,716.239 497.914,735.665 588.854,741.709C679.828,747.753 786.12,740.413 895.51,725.329C1114.29,695.161 1345.6,633.995 1491.806,586.815L1491.19,584.911C1345.064,632.067 1113.872,693.199 895.236,723.349C785.918,738.423 679.772,745.745 588.986,739.713C498.164,733.679 422.878,714.287 375.122,676.083L373.874,677.645ZM1491.812,586.813L2377.818,292.813L2377.178,290.915L1491.184,584.915L1491.812,586.813ZM2377.798,292.815C2408.518,282.883 2443.518,268.537 2475.338,250.669C2507.138,232.811 2535.838,211.395 2553.898,187.288C2571.978,163.151 2579.418,136.237 2568.478,107.561C2557.578,78.968 2528.458,48.836 2473.998,17.994L2472.998,19.734C2527.338,50.491 2555.958,80.327 2566.618,108.273C2577.238,136.136 2570.078,162.335 2552.298,186.089C2534.478,209.875 2506.058,231.129 2474.358,248.927C2442.678,266.715 2407.798,281.011 2377.198,290.913L2377.798,292.815ZM2473.998,17.994C2446.658,2.514 2421.498,-3.057 2398.418,-0.329C2375.358,2.399 2354.438,13.413 2335.558,30.905C2297.838,65.855 2268.038,126.788 2244.818,199.861C2198.358,346.053 2177.998,541.459 2173.498,676.831L2175.498,676.897C2179.998,541.603 2200.338,346.407 2246.718,200.467C2269.918,127.473 2299.598,66.956 2336.918,32.372C2355.578,15.098 2376.098,4.325 2398.658,1.657C2421.218,-1.011 2445.938,4.414 2472.998,19.734L2473.998,17.994ZM2173.498,676.817L2140.838,1366.395L2142.818,1366.489L2175.498,676.911L2173.498,676.817Z" transform="rotate(169.734 1286.544 683.223)" fill="#EEEEEE"/>
</svg>
