<svg width="44" height="38" viewBox="0 0 44 38" fill="none" xmlns="http://www.w3.org/2000/svg" xmlns:xlink="http://www.w3.org/1999/xlink">
<path d="M21.545,10.921L27.693,17.064L27.722,16.742C27.722,13.515 25.097,10.892 21.867,10.892L21.545,10.921Z" fill="#000000"/>
<path d="M21.867,6.991C27.254,6.991 31.626,11.359 31.626,16.741C31.626,17.999 31.373,19.199 30.933,20.3L36.642,26.005C39.589,23.547 41.912,20.369 43.346,16.741C39.96,8.18 31.636,2.115 21.868,2.115C19.135,2.115 16.52,2.603 14.09,3.48L18.306,7.683C19.408,7.254 20.609,6.991 21.867,6.991Z" fill="#000000"/>
<path d="M2.35,1.677L6.8,6.123L7.688,7.011C4.468,9.526 1.921,12.871 0.398,16.742C3.775,25.303 12.109,31.368 21.868,31.368C24.893,31.368 27.781,30.783 30.426,29.72L31.256,30.549L36.945,36.243L39.434,33.767L4.839,-0.81L2.35,1.677ZM13.143,12.451L16.159,15.464C16.071,15.884 16.012,16.303 16.012,16.742C16.012,19.969 18.638,22.592 21.868,22.592C22.307,22.592 22.726,22.534 23.136,22.446L26.152,25.459C24.854,26.102 23.41,26.493 21.868,26.493C16.481,26.493 12.109,22.124 12.109,16.742C12.109,15.201 12.499,13.758 13.143,12.451Z" fill="#000000"/>
</svg>
