<svg width="228" height="228" viewBox="0 0 228 228" fill="none" xmlns="http://www.w3.org/2000/svg" xmlns:xlink="http://www.w3.org/1999/xlink">
<path d="M46.449,113.201C46.449,107.678 50.927,103.201 56.449,103.201L103.018,103.201L103.018,56.632C103.018,51.109 107.495,46.632 113.018,46.632C118.54,46.632 123.018,51.109 123.018,56.632L123.018,103.201L169.586,103.201C175.109,103.201 179.586,107.678 179.586,113.201C179.586,118.724 175.109,123.201 169.586,123.201L123.018,123.201L123.018,169.769C123.018,175.292 118.54,179.769 113.018,179.769C107.495,179.769 103.018,175.292 103.018,169.769L103.018,123.201L56.449,123.201C50.927,123.201 46.449,118.724 46.449,113.201Z" fill="#000000"/>
<path d="M50.574,3.451C91.741,-1.15 134.293,-1.15 175.461,3.451C199.812,6.172 219.478,25.354 222.342,49.847C227.266,91.939 227.266,134.462 222.342,176.554C219.478,201.048 199.812,220.23 175.461,222.95C134.293,227.552 91.741,227.552 50.574,222.95C26.222,220.23 6.557,201.048 3.692,176.554C-1.231,134.462 -1.231,91.939 3.692,49.847C6.557,25.354 26.222,6.172 50.574,3.451ZM173.239,23.327C133.548,18.891 92.486,18.891 52.795,23.327C37.536,25.032 25.322,37.076 23.557,52.171C18.814,92.719 18.814,133.682 23.557,174.231C25.322,189.326 37.536,201.37 52.795,203.074C92.487,207.51 133.548,207.51 173.239,203.074C188.498,201.37 200.712,189.326 202.478,174.231C207.22,133.682 207.22,92.719 202.478,52.171C200.712,37.076 188.498,25.032 173.239,23.327Z" clip-rule="evenodd" fill-rule="evenodd" fill="#000000"/>
</svg>
