<svg width="78" height="80" viewBox="0 0 78 80" fill="none" xmlns="http://www.w3.org/2000/svg" xmlns:xlink="http://www.w3.org/1999/xlink">
<path d="M55.009,17.78C55.009,15.479 56.874,13.614 59.175,13.614C61.477,13.614 63.342,15.479 63.342,17.78C63.342,20.081 61.477,21.947 59.175,21.947C56.874,21.947 55.009,20.081 55.009,17.78Z" fill="#000000"/>
<path d="M38.342,18.822C27.411,18.822 18.55,27.683 18.55,38.614C18.55,49.544 27.411,58.405 38.342,58.405C49.273,58.405 58.134,49.544 58.134,38.614C58.134,27.683 49.273,18.822 38.342,18.822ZM24.8,38.614C24.8,31.135 30.863,25.072 38.342,25.072C45.821,25.072 51.884,31.135 51.884,38.614C51.884,46.092 45.821,52.155 38.342,52.155C30.863,52.155 24.8,46.092 24.8,38.614Z" clip-rule="evenodd" fill-rule="evenodd" fill="#000000"/>
<path d="M60.251,0.418C45.807,-1.197 30.877,-1.197 16.433,0.418C8.049,1.355 1.281,7.959 0.295,16.386C-1.432,31.154 -1.432,46.073 0.295,60.841C1.281,69.268 8.049,75.872 16.433,76.809C30.877,78.424 45.807,78.424 60.251,76.809C68.635,75.872 75.403,69.268 76.389,60.841C78.116,46.073 78.116,31.154 76.389,16.386C75.403,7.959 68.635,1.355 60.251,0.418ZM17.127,6.629C31.11,5.066 45.574,5.066 59.557,6.629C65.099,7.249 69.539,11.622 70.181,17.112C71.852,31.398 71.852,45.829 70.181,60.115C69.539,65.605 65.099,69.979 59.557,70.598C45.574,72.161 31.11,72.161 17.127,70.598C11.585,69.979 7.145,65.605 6.503,60.115C4.832,45.829 4.832,31.398 6.503,17.112C7.145,11.622 11.585,7.249 17.127,6.629Z" clip-rule="evenodd" fill-rule="evenodd" fill="#000000"/>
</svg>
