<svg width="80" height="80" viewBox="0 0 80 80" fill="none" xmlns="http://www.w3.org/2000/svg" xmlns:xlink="http://www.w3.org/1999/xlink">
<path d="M56.009,18.573C56.009,16.272 57.874,14.407 60.175,14.407C62.477,14.407 64.342,16.272 64.342,18.573C64.342,20.874 62.477,22.74 60.175,22.74C57.874,22.74 56.009,20.874 56.009,18.573Z" fill="#000000"/>
<path d="M39.342,19.615C28.411,19.615 19.55,28.476 19.55,39.407C19.55,50.337 28.411,59.198 39.342,59.198C50.273,59.198 59.134,50.337 59.134,39.407C59.134,28.476 50.273,19.615 39.342,19.615ZM25.8,39.407C25.8,31.928 31.863,25.865 39.342,25.865C46.821,25.865 52.884,31.928 52.884,39.407C52.884,46.885 46.821,52.948 39.342,52.948C31.863,52.948 25.8,46.885 25.8,39.407Z" clip-rule="evenodd" fill-rule="evenodd" fill="#000000"/>
<path d="M61.251,1.211C46.807,-0.404 31.877,-0.404 17.433,1.211C9.049,2.148 2.281,8.752 1.295,17.179C-0.432,31.947 -0.432,46.866 1.295,61.634C2.281,70.061 9.049,76.665 17.433,77.602C31.877,79.217 46.807,79.217 61.251,77.602C69.635,76.665 76.403,70.061 77.389,61.634C79.116,46.866 79.116,31.947 77.389,17.179C76.403,8.752 69.635,2.148 61.251,1.211ZM18.127,7.422C32.11,5.859 46.574,5.859 60.557,7.422C66.099,8.041 70.539,12.415 71.181,17.905C72.852,32.191 72.852,46.622 71.181,60.908C70.539,66.398 66.099,70.772 60.557,71.391C46.574,72.954 32.11,72.954 18.127,71.391C12.585,70.772 8.145,66.398 7.503,60.908C5.832,46.622 5.832,32.191 7.503,17.905C8.145,12.415 12.585,8.041 18.127,7.422Z" clip-rule="evenodd" fill-rule="evenodd" fill="#000000"/>
</svg>
