<svg width="68" height="66" viewBox="0 0 68 66" fill="none" xmlns="http://www.w3.org/2000/svg" xmlns:xlink="http://www.w3.org/1999/xlink">
<path d="M14.851,-0.454C16.404,-0.454 17.664,0.805 17.664,2.358L17.664,8.612C28.268,7.668 38.934,7.668 49.538,8.612L49.538,2.358C49.538,0.805 50.798,-0.454 52.351,-0.454C53.904,-0.454 55.163,0.805 55.163,2.358L55.163,9.17C60.762,9.962 65.186,14.39 65.934,20.039L66.259,22.488C67.624,32.786 67.506,43.227 65.909,53.493C65.118,58.578 60.986,62.484 55.865,62.989L51.391,63.43C39.56,64.597 27.642,64.597 15.811,63.43L11.337,62.989C6.215,62.484 2.084,58.578 1.293,53.493C-0.304,43.227 -0.422,32.786 0.943,22.488L1.267,20.039C2.016,14.39 6.439,9.962 12.039,9.17L12.039,2.358C12.039,0.805 13.298,-0.454 14.851,-0.454ZM16.52,14.369C27.88,13.249 39.322,13.249 50.681,14.369L54.077,14.704C57.327,15.024 59.929,17.54 60.358,20.778L60.683,23.227C60.796,24.082 60.899,24.939 60.991,25.796L6.211,25.796C6.303,24.939 6.406,24.082 6.519,23.227L6.844,20.778C7.273,17.54 9.875,15.024 13.125,14.704L16.52,14.369ZM5.764,31.421C5.396,38.501 5.759,45.608 6.851,52.628C7.248,55.179 9.32,57.138 11.889,57.391L16.363,57.832C27.827,58.963 39.375,58.963 50.839,57.832L55.313,57.391C57.882,57.138 59.954,55.179 60.351,52.628C61.443,45.608 61.806,38.501 61.438,31.421L5.764,31.421Z" clip-rule="evenodd" fill-rule="evenodd" fill="#000000"/>
</svg>
