<svg width="70" height="78" viewBox="0 0 70 78" fill="none" xmlns="http://www.w3.org/2000/svg" xmlns:xlink="http://www.w3.org/1999/xlink">
<path d="M40.492,9.06C36.865,5.579 31.138,5.579 27.51,9.06L8.234,27.557C7.761,28.01 7.444,28.6 7.326,29.244C5.017,41.835 4.846,54.725 6.821,67.373L7.29,70.375L19.692,70.375L19.692,44.495C19.692,42.769 21.091,41.37 22.817,41.37L45.186,41.37C46.911,41.37 48.311,42.769 48.311,44.495L48.311,70.375L60.712,70.375L61.181,67.373C63.156,54.726 62.986,41.835 60.677,29.244C60.559,28.6 60.241,28.01 59.769,27.557L40.492,9.06ZM23.183,4.55C29.229,-1.251 38.774,-1.251 44.82,4.55L64.096,23.047C65.515,24.409 66.47,26.183 66.825,28.117C69.26,41.399 69.44,54.996 67.356,68.338L66.603,73.16C66.292,75.155 64.574,76.625 62.555,76.625L45.186,76.625C43.46,76.625 42.061,75.226 42.061,73.5L42.061,47.62L25.942,47.62L25.942,73.5C25.942,75.226 24.543,76.625 22.817,76.625L5.447,76.625C3.429,76.625 1.711,75.155 1.399,73.16L0.646,68.338C-1.437,54.996 -1.257,41.399 1.178,28.117C1.533,26.183 2.487,24.409 3.906,23.047L23.183,4.55Z" clip-rule="evenodd" fill-rule="evenodd" fill="#000000"/>
</svg>
