<svg width="66" height="66" viewBox="0 0 66 66" fill="none" xmlns="http://www.w3.org/2000/svg" xmlns:xlink="http://www.w3.org/1999/xlink">
<path d="M63.318,55.042C64.987,39.004 64.987,22.837 63.318,6.799C62.723,1.08 56.129,-1.817 51.514,1.614L36.126,13.053C31.437,16.538 25.749,18.421 19.906,18.421L5.547,18.421C2.958,18.421 0.859,20.519 0.859,23.108L0.859,38.733C0.859,41.322 2.958,43.42 5.547,43.42L7.888,43.42L4.718,55.251C4.365,56.57 5.009,57.951 6.246,58.528L20.05,64.966C20.804,65.317 21.674,65.317 22.427,64.966C23.181,64.614 23.74,63.948 23.955,63.144L28.691,45.473C28.741,45.285 28.771,45.097 28.782,44.91C31.398,45.813 33.877,47.116 36.126,48.788L51.514,60.227C56.129,63.658 62.723,60.761 63.318,55.042ZM57.723,7.381C59.351,23.032 59.351,38.809 57.723,54.46C57.579,55.842 55.986,56.542 54.87,55.713L39.482,44.274C33.822,40.067 26.958,37.795 19.906,37.795L6.484,37.795L6.484,24.045L19.906,24.045C26.958,24.045 33.822,21.774 39.482,17.567L54.87,6.128C55.986,5.299 57.579,5.999 57.723,7.381ZM23.385,43.644C22.236,43.496 21.075,43.42 19.906,43.42L13.711,43.42L10.762,54.428L19.39,58.451L23.257,44.017C23.292,43.888 23.335,43.764 23.385,43.644Z" clip-rule="evenodd" fill-rule="evenodd" fill="#000000"/>
</svg>
