<svg width="228" height="228" viewBox="0 0 228 228" fill="none" xmlns="http://www.w3.org/2000/svg" xmlns:xlink="http://www.w3.org/1999/xlink">
<path d="M47.432,113.999C47.432,108.477 51.909,103.999 57.432,103.999L104,103.999L104,57.431C104,51.908 108.477,47.431 114,47.431C119.523,47.431 124,51.908 124,57.431L124,103.999L170.569,103.999C176.092,103.999 180.569,108.477 180.569,113.999C180.569,119.522 176.092,123.999 170.569,123.999L124,123.999L124,170.568C124,176.091 119.523,180.568 114,180.568C108.477,180.568 104,176.091 104,170.568L104,123.999L57.432,123.999C51.909,123.999 47.432,119.522 47.432,113.999Z" fill="#000000"/>
<path d="M51.556,4.25C92.724,-0.351 135.276,-0.351 176.443,4.25C200.795,6.971 220.46,26.153 223.324,50.646C228.248,92.738 228.248,135.261 223.324,177.353C220.46,201.847 200.795,221.029 176.443,223.749C135.276,228.351 92.724,228.351 51.556,223.749C27.205,221.029 7.539,201.847 4.675,177.353C-0.248,135.261 -0.248,92.738 4.675,50.646C7.539,26.153 27.205,6.971 51.556,4.25ZM174.222,24.126C134.531,19.69 93.469,19.69 53.778,24.126C38.519,25.831 26.305,37.875 24.539,52.969C19.797,93.518 19.797,134.481 24.539,175.03C26.305,190.125 38.519,202.169 53.778,203.873C93.469,208.309 134.531,208.309 174.222,203.873C189.481,202.169 201.694,190.125 203.46,175.03C208.202,134.481 208.202,93.518 203.46,52.969C201.694,37.875 189.481,25.831 174.222,24.126Z" clip-rule="evenodd" fill-rule="evenodd" fill="#000000"/>
</svg>
