<svg width="66" height="50" viewBox="0 0 66 50" fill="none" xmlns="http://www.w3.org/2000/svg" xmlns:xlink="http://www.w3.org/1999/xlink">
<path d="M38.076,12.358L3,12.358C1.447,12.358 0.188,11.099 0.188,9.546C0.188,7.993 1.447,6.733 3,6.733L38.076,6.733C39.3,2.405 43.279,-0.767 48,-0.767C52.721,-0.767 56.7,2.405 57.924,6.733L63,6.733C64.553,6.733 65.813,7.993 65.813,9.546C65.813,11.099 64.553,12.358 63,12.358L57.924,12.358C56.7,16.687 52.721,19.858 48,19.858C43.279,19.858 39.3,16.687 38.076,12.358ZM43.313,9.546C43.313,6.957 45.411,4.858 48,4.858C50.589,4.858 52.688,6.957 52.688,9.546C52.688,12.135 50.589,14.233 48,14.233C45.411,14.233 43.313,12.135 43.313,9.546Z" clip-rule="evenodd" fill-rule="evenodd" fill="#000000"/>
<path d="M27.924,42.358L63,42.358C64.553,42.358 65.813,41.099 65.813,39.546C65.813,37.993 64.553,36.733 63,36.733L27.924,36.733C26.7,32.405 22.721,29.233 18,29.233C13.28,29.233 9.3,32.405 8.076,36.733L3,36.733C1.447,36.733 0.188,37.993 0.188,39.546C0.188,41.099 1.447,42.358 3,42.358L8.076,42.358C9.3,46.687 13.28,49.858 18,49.858C22.721,49.858 26.7,46.687 27.924,42.358ZM13.313,39.546C13.313,36.957 15.411,34.858 18,34.858C20.589,34.858 22.688,36.957 22.688,39.546C22.688,42.135 20.589,44.233 18,44.233C15.411,44.233 13.313,42.135 13.313,39.546Z" clip-rule="evenodd" fill-rule="evenodd" fill="#000000"/>
</svg>
