<svg width="4806" height="1952" viewBox="0 0 4806 1952" fill="none" xmlns="http://www.w3.org/2000/svg" xmlns:xlink="http://www.w3.org/1999/xlink">
<mask id="mask_0_29_685" style="mask-type:alpha" maskUnits="userSpaceOnUse" x="346" y="972" width="1920" height="360.602448">
<rect  x="346" y="972" width="3840" height="721.205" fill="#60E1CB"/>
</mask>
<g opacity="0.6">
<path d="M3990.25,1433.631L3992.798,1432.047L3992.694,1431.879L3992.566,1431.725L3990.25,1433.631ZM2516.25,1652.973L2514.372,1650.633L2514.354,1650.647L2516.25,1652.973ZM4799.93,762.971C4749.49,824.3 4653.45,914.687 4529.55,986.209C4405.65,1057.731 4254.11,1110.261 4092.51,1096.265L4091.992,1102.243C4255.19,1116.379 4407.99,1063.311 4532.55,991.407C4657.11,919.503 4753.69,828.635 4804.57,766.783L4799.93,762.971ZM4092.51,1096.265C4011.082,1089.213 3956.978,1098.843 3923.45,1119.765C3889.648,1140.855 3877.208,1173.115 3878.452,1209.801C3879.69,1246.311 3894.454,1287.363 3915.104,1326.851C3935.78,1366.389 3962.496,1404.615 3987.934,1435.537L3992.566,1431.725C3967.338,1401.055 3940.87,1363.173 3920.422,1324.071C3899.946,1284.919 3885.642,1244.801 3884.448,1209.597C3883.26,1174.569 3895.018,1144.575 3926.626,1124.855C3958.504,1104.963 4011.018,1095.229 4091.992,1102.243L4092.51,1096.265ZM3987.702,1435.215C4011.216,1473.051 4033.356,1515.767 4046.178,1554.023C4052.588,1573.153 4056.63,1591.051 4057.396,1606.597C4058.164,1622.169 4055.634,1635.085 4049.238,1644.559C4042.914,1653.925 4032.524,1660.349 4016.608,1662.435C4000.598,1664.535 3979.114,1662.215 3951.026,1654.063C3894.86,1637.761 3813.172,1598.411 3697.838,1526.451L3694.662,1531.541C3810.128,1603.585 3892.38,1643.289 3949.354,1659.825C3977.836,1668.091 4000.224,1670.635 4017.388,1668.385C4034.648,1666.121 4046.74,1658.983 4054.212,1647.915C4061.612,1636.955 4064.192,1622.565 4063.39,1606.301C4062.586,1590.011 4058.376,1571.541 4051.866,1552.115C4038.844,1513.259 4016.45,1470.105 3992.798,1432.047L3987.702,1435.215ZM3697.838,1526.451C3466.21,1381.933 3220.612,1372.603 3007.878,1419.555C2795.198,1466.495 2615.186,1569.717 2514.372,1650.633L2518.128,1655.311C2618.314,1574.899 2797.502,1472.131 3009.172,1425.415C3220.788,1378.709 3464.69,1388.055 3694.662,1531.541L3697.838,1526.451ZM2514.354,1650.647L2151.353,1946.879L2155.147,1951.527L2518.146,1655.297L2514.354,1650.647Z" fill="#E7E7E7"/>
<path d="M999.589,587.36L1001.007,590.004L1001.021,589.996L1001.037,589.988L999.589,587.36ZM1531.499,294.12L1530.079,291.478L1530.065,291.486L1530.051,291.494L1531.499,294.12ZM1409.629,678.126L1412.627,678.212L1412.627,678.186L1409.629,678.126ZM107.231,679.288C120.511,647.674 147.328,610.41 184.4,599.616C220.982,588.968 269.259,603.718 326.599,679.93L331.393,676.322C273.466,599.33 222.886,582.164 182.723,593.856C143.05,605.406 115.235,644.742 101.699,676.964L107.231,679.288ZM326.599,679.93C356.087,719.124 402.355,738.714 457.395,744.79C512.423,750.864 576.561,743.48 642.375,728.402C774.017,698.244 913.107,637.13 1001.007,590.004L998.171,584.716C910.569,631.682 771.995,692.552 641.035,722.554C575.547,737.556 512.145,744.796 458.053,738.826C403.975,732.856 359.539,713.73 331.393,676.322L326.599,679.93ZM1001.037,589.988L1532.949,296.748L1530.051,291.494L998.141,584.734L1001.037,589.988ZM1532.919,296.764C1570.037,276.822 1617.745,239.06 1639.657,190.45C1650.647,166.068 1655.163,138.911 1648.521,109.978C1641.883,81.066 1624.167,50.662 1591.189,19.641L1587.077,24.011C1619.417,54.431 1636.363,83.838 1642.673,111.32C1648.977,138.781 1644.729,164.599 1634.187,187.984C1613.033,234.91 1566.605,271.856 1530.079,291.478L1532.919,296.764ZM1591.189,19.641C1574.495,3.937 1558.587,-2.223 1543.557,0.729C1528.673,3.652 1515.651,15.335 1504.217,32.933C1481.339,68.147 1463.411,129.236 1449.471,202.094C1421.553,348.026 1409.331,543.016 1406.629,678.066L1412.627,678.186C1415.329,543.268 1427.541,348.668 1455.365,203.222C1469.299,130.39 1487.067,70.342 1509.249,36.202C1520.345,19.124 1532.193,9.076 1544.713,6.617C1557.085,4.187 1571.113,8.994 1587.077,24.011L1591.189,19.641ZM1406.629,678.04L1387.017,1365.836L1393.015,1366.008L1412.627,678.212L1406.629,678.04Z" transform="rotate(162.858 876.544 684.469)" fill="#E7E7E7"/>
</g>
<g opacity="0.15">
<path d="M801,1627.985C801,1759.987 621.466,1866.997 400,1866.997C178.534,1866.997 -1,1759.987 -1,1627.985C-1,1495.983 178.534,1388.975 400,1388.975C621.466,1388.975 801,1495.983 801,1627.985Z" fill="#FFFFFF"/>
</g>
</svg>
