<svg width="4806" height="1952" viewBox="0 0 4806 1952" fill="none" xmlns="http://www.w3.org/2000/svg" xmlns:xlink="http://www.w3.org/1999/xlink">
<mask id="mask_0_25_521" style="mask-type:alpha" maskUnits="userSpaceOnUse" x="346" y="972" width="1920" height="360.602448">
<rect  x="346" y="972" width="3840" height="721.205" fill="#60E1CB"/>
</mask>
<g opacity="0.6">
<path d="M3990.249,1433.631L3992.797,1432.047L3992.693,1431.879L3992.565,1431.725L3990.249,1433.631ZM2516.249,1652.973L2514.371,1650.633L2514.353,1650.647L2516.249,1652.973ZM4799.929,762.971C4749.489,824.3 4653.449,914.687 4529.549,986.209C4405.649,1057.731 4254.109,1110.261 4092.509,1096.265L4091.991,1102.243C4255.189,1116.379 4407.989,1063.311 4532.549,991.407C4657.109,919.503 4753.689,828.635 4804.569,766.783L4799.929,762.971ZM4092.509,1096.265C4011.081,1089.213 3956.977,1098.843 3923.449,1119.765C3889.647,1140.855 3877.207,1173.115 3878.451,1209.801C3879.689,1246.311 3894.453,1287.363 3915.103,1326.851C3935.779,1366.389 3962.495,1404.615 3987.933,1435.537L3992.565,1431.725C3967.337,1401.055 3940.869,1363.173 3920.421,1324.071C3899.945,1284.919 3885.641,1244.801 3884.447,1209.597C3883.259,1174.569 3895.017,1144.575 3926.625,1124.855C3958.503,1104.963 4011.017,1095.229 4091.991,1102.243L4092.509,1096.265ZM3987.701,1435.215C4011.215,1473.051 4033.355,1515.767 4046.177,1554.023C4052.587,1573.153 4056.629,1591.051 4057.395,1606.597C4058.163,1622.169 4055.633,1635.085 4049.237,1644.559C4042.913,1653.925 4032.523,1660.349 4016.607,1662.435C4000.597,1664.535 3979.113,1662.215 3951.025,1654.063C3894.859,1637.761 3813.171,1598.411 3697.837,1526.451L3694.661,1531.541C3810.127,1603.585 3892.379,1643.289 3949.353,1659.825C3977.835,1668.091 4000.223,1670.635 4017.387,1668.385C4034.647,1666.121 4046.739,1658.983 4054.211,1647.915C4061.611,1636.955 4064.191,1622.565 4063.389,1606.301C4062.585,1590.011 4058.375,1571.541 4051.865,1552.115C4038.843,1513.259 4016.449,1470.105 3992.797,1432.047L3987.701,1435.215ZM3697.837,1526.451C3466.209,1381.933 3220.611,1372.603 3007.877,1419.555C2795.197,1466.495 2615.185,1569.717 2514.371,1650.633L2518.127,1655.311C2618.313,1574.899 2797.501,1472.131 3009.171,1425.415C3220.787,1378.709 3464.689,1388.055 3694.661,1531.541L3697.837,1526.451ZM2514.353,1650.647L2151.352,1946.879L2155.146,1951.527L2518.145,1655.297L2514.353,1650.647Z" fill="#E7E7E7"/>
<path d="M999.588,587.36L1001.006,590.004L1001.02,589.996L1001.036,589.988L999.588,587.36ZM1531.498,294.12L1530.078,291.478L1530.064,291.486L1530.05,291.494L1531.498,294.12ZM1409.628,678.126L1412.626,678.212L1412.626,678.186L1409.628,678.126ZM107.23,679.288C120.51,647.674 147.327,610.41 184.399,599.616C220.981,588.968 269.258,603.718 326.598,679.93L331.392,676.322C273.465,599.33 222.885,582.164 182.722,593.856C143.049,605.406 115.234,644.742 101.698,676.964L107.23,679.288ZM326.598,679.93C356.086,719.124 402.354,738.714 457.394,744.79C512.422,750.864 576.56,743.48 642.374,728.402C774.016,698.244 913.106,637.13 1001.006,590.004L998.17,584.716C910.568,631.682 771.994,692.552 641.034,722.554C575.546,737.556 512.144,744.796 458.052,738.826C403.974,732.856 359.538,713.73 331.392,676.322L326.598,679.93ZM1001.036,589.988L1532.948,296.748L1530.05,291.494L998.14,584.734L1001.036,589.988ZM1532.918,296.764C1570.036,276.822 1617.744,239.06 1639.656,190.45C1650.646,166.068 1655.162,138.911 1648.52,109.978C1641.882,81.066 1624.166,50.662 1591.188,19.641L1587.076,24.011C1619.416,54.431 1636.362,83.838 1642.672,111.32C1648.976,138.781 1644.728,164.599 1634.186,187.984C1613.032,234.91 1566.604,271.856 1530.078,291.478L1532.918,296.764ZM1591.188,19.641C1574.494,3.937 1558.586,-2.223 1543.556,0.729C1528.672,3.652 1515.65,15.335 1504.216,32.933C1481.338,68.147 1463.41,129.236 1449.47,202.094C1421.552,348.026 1409.33,543.016 1406.628,678.066L1412.626,678.186C1415.328,543.268 1427.54,348.668 1455.364,203.222C1469.298,130.39 1487.066,70.342 1509.248,36.202C1520.344,19.124 1532.192,9.076 1544.712,6.617C1557.084,4.187 1571.112,8.994 1587.076,24.011L1591.188,19.641ZM1406.628,678.04L1387.016,1365.836L1393.014,1366.008L1412.626,678.212L1406.628,678.04Z" transform="rotate(162.858 876.543 684.469)" fill="#E7E7E7"/>
</g>
<g opacity="0.15">
<path d="M801,1627.985C801,1759.987 621.466,1866.997 400,1866.997C178.534,1866.997 -1,1759.987 -1,1627.985C-1,1495.983 178.534,1388.975 400,1388.975C621.466,1388.975 801,1495.983 801,1627.985Z" fill="#FFFFFF"/>
</g>
</svg>
