<svg width="4814" height="2136" viewBox="0 0 4814 2136" fill="none" xmlns="http://www.w3.org/2000/svg" xmlns:xlink="http://www.w3.org/1999/xlink">
<mask id="mask_0_34_734" style="mask-type:alpha" maskUnits="userSpaceOnUse" x="354" y="1014" width="1920" height="290">
<rect  x="354" y="1014" width="3840" height="580" fill="#60E1CB"/>
</mask>
<g opacity="0.6">
<path d="M3998.25,1542.126L4000.886,1540.694L4000.796,1540.528L4000.686,1540.374L3998.25,1542.126ZM2524.25,1793.062L2522.22,1790.852L2522.202,1790.87L2524.25,1793.062ZM4807.81,775.291C4757.33,845.489 4661.29,948.904 4537.39,1030.726C4413.49,1112.552 4262.01,1172.598 4100.546,1156.598L4099.954,1162.57C4263.29,1178.754 4416.15,1117.994 4540.71,1035.732C4665.27,953.468 4761.83,849.52 4812.69,778.793L4807.81,775.291ZM4100.546,1156.598C4019.064,1148.524 3964.872,1159.55 3931.294,1183.518C3897.532,1207.62 3885.216,1244.348 3886.452,1286.028C3887.686,1327.622 3902.396,1374.472 3923.034,1419.622C3943.692,1464.814 3970.388,1508.518 3995.814,1543.878L4000.686,1540.374C3975.446,1505.272 3948.958,1461.904 3928.492,1417.128C3908.004,1372.31 3893.648,1326.3 3892.448,1285.85C3891.252,1245.486 3903.134,1210.992 3934.78,1188.402C3966.612,1165.68 4019.036,1154.55 4099.954,1162.57L4100.546,1156.598ZM3995.614,1543.558C4019.138,1586.862 4041.302,1635.776 4054.142,1679.612C4060.564,1701.532 4064.624,1722.082 4065.396,1739.966C4066.168,1757.89 4063.624,1772.846 4057.142,1783.832C4050.746,1794.668 4040.336,1801.958 4024.554,1804.324C4008.626,1806.714 3987.206,1804.078 3959.136,1794.758C3903.006,1776.12 3821.332,1731.116 3705.992,1648.786L3702.508,1653.67C3817.968,1736.086 3900.236,1781.524 3957.246,1800.452C3985.744,1809.916 4008.194,1812.846 4025.442,1810.258C4042.836,1807.65 4054.908,1799.422 4062.308,1786.882C4069.622,1774.49 4072.188,1758.206 4071.39,1739.708C4070.59,1721.172 4066.402,1700.116 4059.902,1677.926C4046.898,1633.54 4024.53,1584.218 4000.886,1540.694L3995.614,1543.558ZM3705.992,1648.786C3474.322,1483.42 3228.618,1472.726 3015.79,1526.466C2803.05,1580.182 2623.02,1698.296 2522.22,1790.852L2526.28,1795.272C2626.48,1703.264 2805.65,1585.714 3017.26,1532.284C3228.782,1478.874 3472.578,1489.546 3702.508,1653.67L3705.992,1648.786ZM2522.202,1790.87L2159.203,2129.77L2163.297,2134.156L2526.298,1795.256L2522.202,1790.87Z" fill="#E7E7E7"/>
<path d="M1024.943,587.9L1026.219,590.616L1026.233,590.608L1026.249,590.602L1024.943,587.9ZM1631.877,294.532L1630.597,291.818L1630.585,291.824L1630.571,291.83L1631.877,294.532ZM1492.815,678.706L1495.815,678.804L1495.815,678.788L1495.815,678.774L1492.815,678.706ZM6.275,680.002C21.381,648.472 51.992,611.054 94.563,600.188C136.797,589.408 192.117,604.476 257.493,680.66L262.045,676.752C195.896,599.666 138.415,582.802 93.079,594.374C48.081,605.86 16.355,645.076 0.864,677.41L6.275,680.002ZM257.493,680.66C291.087,719.808 343.731,739.34 406.365,745.402C469.031,751.468 542.117,744.096 617.173,729.02C767.299,698.864 925.949,637.748 1026.219,590.616L1023.667,585.186C923.681,632.184 765.505,693.106 615.991,723.138C541.227,738.156 468.787,745.416 406.943,739.43C345.067,733.44 294.213,714.238 262.045,676.752L257.493,680.66ZM1026.249,590.602L1633.181,297.232L1630.571,291.83L1023.637,585.2L1026.249,590.602ZM1633.155,297.244C1675.415,277.338 1729.823,239.602 1754.835,190.954C1767.393,166.526 1772.575,139.268 1764.967,110.219C1757.373,81.219 1737.131,50.799 1699.547,19.802L1695.729,24.431C1732.677,54.902 1751.983,84.32 1759.163,111.739C1766.331,139.108 1761.509,164.848 1749.499,188.21C1725.371,235.138 1672.367,272.142 1630.597,291.818L1633.155,297.244ZM1699.547,19.802C1680.509,4.1 1662.571,-1.892 1645.785,0.999C1629.079,3.876 1614.289,15.424 1601.207,33.078C1575.087,68.327 1554.619,129.48 1538.711,202.388C1506.847,348.416 1492.901,543.518 1489.817,678.638L1495.815,678.774C1498.897,543.808 1512.829,349.146 1544.573,203.668C1560.467,130.822 1580.731,70.786 1606.027,36.65C1618.653,19.612 1632.241,9.42 1646.803,6.912C1661.283,4.418 1677.503,9.399 1695.729,24.431L1699.547,19.802ZM1489.817,678.608L1467.439,1366.708L1473.435,1366.902L1495.815,678.804L1489.817,678.608Z" transform="rotate(164.99 884.544 685.052)" fill="#E7E7E7"/>
</g>
<g opacity="0.15">
<path d="M818,1589.44C818,1740.456 638.466,1862.878 417,1862.878C195.534,1862.878 16,1740.456 16,1589.44C16,1438.423 195.534,1316 417,1316C638.466,1316 818,1438.423 818,1589.44Z" fill="#FFFFFF"/>
</g>
</svg>
