<svg width="4940" height="1958" viewBox="0 0 4940 1958" fill="none" xmlns="http://www.w3.org/2000/svg" xmlns:xlink="http://www.w3.org/1999/xlink">
<mask id="mask_0_25_797" style="mask-type:alpha" maskUnits="userSpaceOnUse" x="446" y="1080" width="1920" height="267">
<rect  x="446" y="1080" width="3840" height="534" fill="#60E1CB"/>
</mask>
<g opacity="0.6">
<path d="M4125,1365.084L4127.636,1363.652L4127.546,1363.486L4127.436,1363.332L4125,1365.084ZM2651,1616.02L2648.97,1613.81L2648.952,1613.828L2651,1616.02ZM4934.56,598.249C4884.08,668.447 4788.04,771.862 4664.14,853.684C4540.24,935.51 4388.76,995.556 4227.296,979.556L4226.704,985.528C4390.04,1001.712 4542.9,940.952 4667.46,858.69C4792.02,776.426 4888.58,672.478 4939.44,601.751L4934.56,598.249ZM4227.296,979.556C4145.814,971.482 4091.622,982.508 4058.044,1006.476C4024.282,1030.578 4011.966,1067.306 4013.202,1108.986C4014.436,1150.58 4029.146,1197.43 4049.784,1242.58C4070.442,1287.772 4097.138,1331.476 4122.564,1366.836L4127.436,1363.332C4102.196,1328.23 4075.708,1284.862 4055.242,1240.086C4034.754,1195.268 4020.398,1149.258 4019.198,1108.808C4018.002,1068.444 4029.884,1033.95 4061.53,1011.36C4093.362,988.638 4145.786,977.508 4226.704,985.528L4227.296,979.556ZM4122.364,1366.516C4145.888,1409.82 4168.052,1458.734 4180.892,1502.57C4187.314,1524.49 4191.374,1545.04 4192.146,1562.924C4192.918,1580.848 4190.374,1595.804 4183.892,1606.79C4177.496,1617.626 4167.086,1624.916 4151.304,1627.282C4135.376,1629.672 4113.956,1627.036 4085.886,1617.716C4029.756,1599.078 3948.082,1554.074 3832.742,1471.744L3829.258,1476.628C3944.718,1559.044 4026.986,1604.482 4083.996,1623.41C4112.494,1632.874 4134.944,1635.804 4152.192,1633.216C4169.586,1630.608 4181.658,1622.38 4189.058,1609.84C4196.372,1597.448 4198.938,1581.164 4198.14,1562.666C4197.34,1544.13 4193.152,1523.074 4186.652,1500.884C4173.648,1456.498 4151.28,1407.176 4127.636,1363.652L4122.364,1366.516ZM3832.742,1471.744C3601.072,1306.378 3355.368,1295.684 3142.54,1349.424C2929.8,1403.14 2749.77,1521.254 2648.97,1613.81L2653.03,1618.23C2753.23,1526.222 2932.4,1408.672 3144.01,1355.242C3355.532,1301.832 3599.328,1312.504 3829.258,1476.628L3832.742,1471.744ZM2648.952,1613.828L2285.953,1952.728L2290.047,1957.114L2653.048,1618.214L2648.952,1613.828Z" fill="#E7E7E7"/>
<path d="M1023.943,587.96L1025.219,590.676L1025.233,590.668L1025.249,590.662L1023.943,587.96ZM1630.877,294.592L1629.597,291.878L1629.585,291.884L1629.571,291.89L1630.877,294.592ZM1491.815,678.766L1494.815,678.864L1494.815,678.848L1494.815,678.834L1491.815,678.766ZM5.275,680.062C20.381,648.532 50.992,611.114 93.563,600.248C135.797,589.468 191.117,604.536 256.493,680.72L261.045,676.812C194.896,599.726 137.415,582.862 92.079,594.434C47.081,605.92 15.355,645.136 -0.136,677.47L5.275,680.062ZM256.493,680.72C290.087,719.868 342.731,739.4 405.365,745.462C468.031,751.528 541.117,744.156 616.173,729.08C766.299,698.924 924.949,637.808 1025.219,590.676L1022.667,585.246C922.681,632.244 764.505,693.166 614.991,723.198C540.227,738.216 467.787,745.476 405.943,739.49C344.067,733.5 293.213,714.298 261.045,676.812L256.493,680.72ZM1025.249,590.662L1632.181,297.292L1629.571,291.89L1022.637,585.26L1025.249,590.662ZM1632.155,297.304C1674.415,277.398 1728.823,239.662 1753.835,191.013C1766.393,166.586 1771.575,139.328 1763.967,110.279C1756.373,81.279 1736.131,50.859 1698.547,19.862L1694.729,24.491C1731.677,54.962 1750.983,84.38 1758.163,111.798C1765.331,139.168 1760.509,164.908 1748.499,188.27C1724.371,235.198 1671.367,272.202 1629.597,291.878L1632.155,297.304ZM1698.547,19.862C1679.509,4.16 1661.571,-1.832 1644.785,1.059C1628.079,3.935 1613.289,15.483 1600.207,33.138C1574.087,68.386 1553.619,129.54 1537.711,202.448C1505.847,348.476 1491.901,543.578 1488.817,678.698L1494.815,678.834C1497.897,543.868 1511.829,349.206 1543.573,203.728C1559.467,130.882 1579.731,70.846 1605.027,36.71C1617.653,19.672 1631.241,9.479 1645.803,6.972C1660.283,4.478 1676.503,9.458 1694.729,24.491L1698.547,19.862ZM1488.817,678.668L1466.439,1366.768L1472.435,1366.962L1494.815,678.864L1488.817,678.668Z" transform="rotate(164.99 883.544 685.112)" fill="#E7E7E7"/>
</g>
<g opacity="0.15">
<path d="M888,1613.44C888,1764.456 708.466,1886.878 487,1886.878C265.534,1886.878 86,1764.456 86,1613.44C86,1462.423 265.534,1340 487,1340C708.466,1340 888,1462.423 888,1613.44Z" fill="#FFFFFF"/>
</g>
</svg>
