<svg width="3414" height="1364" viewBox="0 0 3414 1364" fill="none" xmlns="http://www.w3.org/2000/svg" xmlns:xlink="http://www.w3.org/1999/xlink">
<mask id="mask_0_57_526" style="mask-type:alpha" maskUnits="userSpaceOnUse" x="240" y="686" width="1366" height="174.956802">
<rect  x="240" y="686" width="2732" height="349.914" fill="#60E1CB"/>
</mask>
<g opacity="0.6">
<path d="M2832.729,1004.617L2835.257,1002.999L2835.147,1002.831L2835.019,1002.677L2832.729,1004.617ZM1784.041,1156.007L1782.197,1153.641L1782.179,1153.655L1784.041,1156.007ZM3408.145,541.103C3372.319,583.352 3304.081,645.669 3216.021,694.983C3127.965,744.293 3020.309,780.483 2905.549,770.841L2905.047,776.819C3021.371,786.595 3130.235,749.901 3218.953,700.218C3307.665,650.539 3376.455,587.754 3412.723,544.983L3408.145,541.103ZM2905.549,770.841C2847.563,765.969 2808.861,772.601 2784.781,787.177C2760.413,801.927 2751.429,824.545 2752.325,850.165C2753.215,875.585 2763.797,904.077 2778.517,931.383C2793.265,958.741 2812.313,985.179 2830.441,1006.557L2835.019,1002.677C2817.101,981.547 2798.309,955.453 2783.799,928.535C2769.259,901.563 2759.163,874.031 2758.321,849.955C2757.487,826.079 2765.721,805.727 2787.887,792.309C2810.343,778.717 2847.495,771.983 2905.047,776.819L2905.549,770.841ZM2830.203,1006.235C2846.911,1032.317 2862.621,1061.729 2871.709,1088.033C2876.253,1101.189 2879.099,1113.445 2879.637,1124.049C2880.177,1134.675 2878.389,1143.345 2874.005,1149.645C2869.685,1155.851 2862.539,1160.197 2851.381,1161.615C2840.139,1163.045 2824.973,1161.473 2805.043,1155.861C2765.191,1144.639 2707.149,1117.527 2625.115,1067.873L2622.007,1073.005C2704.177,1122.743 2762.773,1150.193 2803.417,1161.635C2823.733,1167.357 2839.777,1169.139 2852.139,1167.567C2864.583,1165.985 2873.433,1160.969 2878.929,1153.073C2884.359,1145.269 2886.207,1135.093 2885.629,1123.745C2885.051,1112.375 2882.027,1099.531 2877.379,1086.075C2868.081,1059.157 2852.105,1029.301 2835.257,1002.999L2830.203,1006.235ZM2625.115,1067.873C2460.095,967.989 2285.139,961.555 2133.645,993.991C1982.201,1026.417 1854.015,1097.721 1782.197,1153.641L1785.883,1158.375C1857.069,1102.945 1984.439,1032.075 2134.901,999.859C2285.317,967.653 2458.619,974.109 2622.007,1073.005L2625.115,1067.873ZM1782.179,1153.655L1523.919,1358.113L1527.643,1362.819L1785.903,1158.359L1782.179,1153.655Z" fill="#E7E7E7"/>
<path d="M702.443,418.464L703.893,421.09L703.909,421.082L703.925,421.072L702.443,418.464ZM1069.823,209.854L1068.371,207.228L1068.357,207.236L1068.343,207.244L1069.823,209.854ZM985.649,483.034L988.649,483.118L988.649,483.092L985.649,483.034ZM86.977,484.166C96.123,461.742 114.505,435.56 139.691,428.008C164.346,420.614 197.318,430.678 236.856,484.804L241.701,481.264C201.625,426.402 166.319,413.76 137.967,422.26C110.147,430.602 90.796,458.914 81.421,481.902L86.977,484.166ZM236.856,484.804C257.419,512.954 289.659,526.976 327.849,531.318C366.015,535.658 410.439,530.38 455.949,519.64C546.987,498.158 643.137,454.64 703.893,421.09L700.993,415.838C640.535,449.222 544.909,492.484 454.571,513.8C409.393,524.46 365.729,529.586 328.527,525.356C291.351,521.13 260.944,507.608 241.701,481.264L236.856,484.804ZM703.925,421.072L1071.305,212.462L1068.343,207.244L700.963,415.856L703.925,421.072ZM1071.277,212.478C1097.015,198.235 1130.147,171.245 1145.385,136.428C1153.035,118.947 1156.187,99.453 1151.557,78.679C1146.929,57.922 1134.593,36.151 1111.719,13.988L1107.543,18.298C1129.783,39.844 1141.385,60.623 1145.701,79.984C1150.013,99.328 1147.111,117.521 1139.889,134.022C1125.381,167.169 1093.497,193.325 1068.371,207.228L1071.277,212.478ZM1111.719,13.988C1100.087,2.72 1088.791,-1.903 1077.957,0.289C1067.287,2.447 1058.117,11.027 1050.181,23.607C1034.285,48.807 1021.881,92.407 1012.255,144.238C992.961,248.118 984.517,386.884 982.651,482.976L988.649,483.092C990.515,387.13 998.947,248.74 1018.153,145.334C1027.777,93.523 1040.029,50.946 1055.255,26.808C1062.881,14.719 1070.889,7.84 1079.145,6.169C1087.237,4.533 1096.617,7.712 1107.543,18.298L1111.719,13.988ZM982.651,482.952L969.105,972.248L975.103,972.414L988.649,483.118L982.651,482.952Z" transform="rotate(162.339 617.459 487.546)" fill="#E7E7E7"/>
</g>
<g opacity="0.15">
<path d="M570.117,1033.162C570.117,1124.27 442.385,1198.128 284.821,1198.128C127.258,1198.128 -0.473,1124.27 -0.473,1033.162C-0.473,942.054 127.258,868.196 284.821,868.196C442.385,868.196 570.117,942.054 570.117,1033.162Z" fill="#FFFFFF"/>
</g>
</svg>
