<svg width="4814" height="2136" viewBox="0 0 4814 2136" fill="none" xmlns="http://www.w3.org/2000/svg" xmlns:xlink="http://www.w3.org/1999/xlink">
<mask id="mask_0_25_757" style="mask-type:alpha" maskUnits="userSpaceOnUse" x="354" y="1014" width="1920" height="290">
<rect  x="354" y="1014" width="3840" height="580" fill="#60E1CB"/>
</mask>
<g opacity="0.6">
<path d="M3998.249,1542.126L4000.885,1540.694L4000.795,1540.528L4000.685,1540.374L3998.249,1542.126ZM2524.249,1793.062L2522.219,1790.852L2522.201,1790.87L2524.249,1793.062ZM4807.809,775.291C4757.329,845.489 4661.289,948.904 4537.389,1030.726C4413.489,1112.552 4262.009,1172.598 4100.545,1156.598L4099.953,1162.57C4263.289,1178.754 4416.149,1117.994 4540.709,1035.732C4665.269,953.468 4761.829,849.52 4812.689,778.793L4807.809,775.291ZM4100.545,1156.598C4019.063,1148.524 3964.871,1159.55 3931.293,1183.518C3897.531,1207.62 3885.215,1244.348 3886.451,1286.028C3887.685,1327.622 3902.395,1374.472 3923.033,1419.622C3943.691,1464.814 3970.387,1508.518 3995.813,1543.878L4000.685,1540.374C3975.445,1505.272 3948.957,1461.904 3928.491,1417.128C3908.003,1372.31 3893.647,1326.3 3892.447,1285.85C3891.251,1245.486 3903.133,1210.992 3934.779,1188.402C3966.611,1165.68 4019.035,1154.55 4099.953,1162.57L4100.545,1156.598ZM3995.613,1543.558C4019.137,1586.862 4041.301,1635.776 4054.141,1679.612C4060.563,1701.532 4064.623,1722.082 4065.395,1739.966C4066.167,1757.89 4063.623,1772.846 4057.141,1783.832C4050.745,1794.668 4040.335,1801.958 4024.553,1804.324C4008.625,1806.714 3987.205,1804.078 3959.135,1794.758C3903.005,1776.12 3821.331,1731.116 3705.991,1648.786L3702.507,1653.67C3817.967,1736.086 3900.235,1781.524 3957.245,1800.452C3985.743,1809.916 4008.193,1812.846 4025.441,1810.258C4042.835,1807.65 4054.907,1799.422 4062.307,1786.882C4069.621,1774.49 4072.187,1758.206 4071.389,1739.708C4070.589,1721.172 4066.401,1700.116 4059.901,1677.926C4046.897,1633.54 4024.529,1584.218 4000.885,1540.694L3995.613,1543.558ZM3705.991,1648.786C3474.321,1483.42 3228.617,1472.726 3015.789,1526.466C2803.049,1580.182 2623.019,1698.296 2522.219,1790.852L2526.279,1795.272C2626.479,1703.264 2805.649,1585.714 3017.259,1532.284C3228.781,1478.874 3472.577,1489.546 3702.507,1653.67L3705.991,1648.786ZM2522.201,1790.87L2159.202,2129.77L2163.296,2134.156L2526.297,1795.256L2522.201,1790.87Z" fill="#E7E7E7"/>
<path d="M1024.942,587.9L1026.218,590.616L1026.232,590.608L1026.248,590.602L1024.942,587.9ZM1631.876,294.532L1630.596,291.818L1630.584,291.824L1630.57,291.83L1631.876,294.532ZM1492.814,678.706L1495.814,678.804L1495.814,678.788L1495.814,678.774L1492.814,678.706ZM6.274,680.002C21.38,648.472 51.991,611.054 94.562,600.188C136.796,589.408 192.116,604.476 257.492,680.66L262.044,676.752C195.895,599.666 138.414,582.802 93.078,594.374C48.08,605.86 16.354,645.076 0.863,677.41L6.274,680.002ZM257.492,680.66C291.086,719.808 343.73,739.34 406.364,745.402C469.03,751.468 542.116,744.096 617.172,729.02C767.298,698.864 925.948,637.748 1026.218,590.616L1023.666,585.186C923.68,632.184 765.504,693.106 615.99,723.138C541.226,738.156 468.786,745.416 406.942,739.43C345.066,733.44 294.212,714.238 262.044,676.752L257.492,680.66ZM1026.248,590.602L1633.18,297.232L1630.57,291.83L1023.636,585.2L1026.248,590.602ZM1633.154,297.244C1675.414,277.338 1729.822,239.602 1754.834,190.954C1767.392,166.526 1772.574,139.268 1764.966,110.219C1757.372,81.219 1737.13,50.799 1699.546,19.802L1695.728,24.431C1732.676,54.902 1751.982,84.32 1759.162,111.739C1766.33,139.108 1761.508,164.848 1749.498,188.21C1725.37,235.138 1672.366,272.142 1630.596,291.818L1633.154,297.244ZM1699.546,19.802C1680.508,4.1 1662.57,-1.892 1645.784,0.999C1629.078,3.876 1614.288,15.424 1601.206,33.078C1575.086,68.327 1554.618,129.48 1538.71,202.388C1506.846,348.416 1492.9,543.518 1489.816,678.638L1495.814,678.774C1498.896,543.808 1512.828,349.146 1544.572,203.668C1560.466,130.822 1580.73,70.786 1606.026,36.65C1618.652,19.612 1632.24,9.42 1646.802,6.912C1661.282,4.418 1677.502,9.399 1695.728,24.431L1699.546,19.802ZM1489.816,678.608L1467.438,1366.708L1473.434,1366.902L1495.814,678.804L1489.816,678.608Z" transform="rotate(164.99 884.543 685.052)" fill="#E7E7E7"/>
</g>
<g opacity="0.15">
<path d="M818,1589.44C818,1740.456 638.466,1862.878 417,1862.878C195.534,1862.878 16,1740.456 16,1589.44C16,1438.423 195.534,1316 417,1316C638.466,1316 818,1438.423 818,1589.44Z" fill="#FFFFFF"/>
</g>
</svg>
