<svg width="26" height="26" viewBox="0 0 26 26" fill="none" xmlns="http://www.w3.org/2000/svg" xmlns:xlink="http://www.w3.org/1999/xlink">
<path d="M0.074,0.617C0.125,0.495 0.199,0.385 0.292,0.292C0.385,0.199 0.495,0.125 0.617,0.074C0.738,0.024 0.868,-0.002 1,-0.002C1.131,-0.002 1.262,0.024 1.383,0.074C1.505,0.125 1.615,0.199 1.708,0.292L12,10.584L22.292,0.292C22.385,0.199 22.495,0.125 22.616,0.074C22.738,0.024 22.868,-0.002 23,-0.002C23.131,-0.002 23.262,0.024 23.383,0.074C23.505,0.125 23.615,0.199 23.708,0.292C23.801,0.385 23.875,0.495 23.925,0.617C23.976,0.738 24.002,0.868 24.002,1C24.002,1.131 23.976,1.262 23.925,1.383C23.875,1.505 23.801,1.615 23.708,1.708L13.416,12L23.708,22.292C23.896,22.48 24.001,22.734 24.001,23C24.001,23.265 23.896,23.52 23.708,23.708C23.52,23.896 23.265,24.001 23,24.001C22.734,24.001 22.48,23.896 22.292,23.708L12,13.416L1.708,23.708C1.52,23.896 1.265,24.001 1,24.001C0.734,24.001 0.48,23.896 0.292,23.708C0.104,23.52 -0.001,23.265 -0.001,23C-0.001,22.734 0.104,22.48 0.292,22.292L10.584,12L0.292,1.708C0.199,1.615 0.125,1.505 0.074,1.383C0.024,1.262 -0.002,1.131 -0.002,1C-0.002,0.868 0.024,0.738 0.074,0.617Z" clip-rule="evenodd" fill-rule="evenodd" fill="#000000"/>
</svg>
